<?xml version="1.0" encoding="UTF-8"?>
<svg id="Layer_1" data-name="Layer 1" xmlns="http://www.w3.org/2000/svg" viewBox="0 0 453.06 256">
  <defs>
    <style>
      .cls-1 {
        fill: #f2d7a6;
      }
    </style>
  </defs>
  <path class="cls-1" d="M447.71,146.42c.25-.11,4.83,7.37,4.97,7.42,1.71-13.95-2.28-27.89-11.57-42.18,3.32.63,6.49,3.6,9.4,5.7-3.14-15.17-13.83-28.92-27.97-36.48,4.16-.63,8.09.3,12.13.98-10.58-13.75-27.33-20.54-47.58-20.1,3.46-2.24,7.1-3.73,10.79-5.18-14-3.67-28.69-1.87-41.57,5.11.01.67,4.55,7.18,1.12,5.28-8.82-10.4-17.67-18.48-28.03-25.62,3.12-1.04,6.33-1.06,9.59-1.14-7.91-7.51-16.77-10.43-27.98-13.85l10.82-3.05c-10.53-5.79-21.25-6.13-32.29-6.19,3.46-2.68,7.19-4.62,10.99-6.62-13.81-4.03-27.28-.97-37.19,1.76,2.36-4.5,5.1-8.14,8.27-12.25-10.14.58-19.71,5.47-29.24,10.65.46-3.43.94-6.45.71-10.06-8,2.32-17.34,10.4-25.16,12.47-18.68,3.91-37.55,11.53-51.71,24.08,3.18,6.56,5.99,13.06,6.86,20.39-13.67-23.45-31.42-42.25-56.59-50.7l5.2,9.78c-12.82-8.68-26.25-13.29-36.64-11.79,3.13,2.21,6.25,4.32,8.7,7.48-17.19-4.35-34.23-1.51-46.95,8.17,4.56.38,9.07.58,13.35,2.32-17.04,5.02-31.61,15.78-39.16,29.21,4.27-1.11,8.16-2.65,12.77-2.51-11.51,8.8-25.21,22.34-30.09,42.5,3.74-2.79,7.32-5.61,11.86-7.28C4.01,102.36-1.32,120.17.28,137.35c2.55-4.04,4.78-8.09,8.44-11.42-5.03,19.19-3.73,39.63,3.68,53.28.76-4.97,1.56-9.6,3.1-14.32,2.26,23.72,13.28,39.83,19.35,44.39l-1.32-12.89c5.22,9.91,14.01,24.63,29.62,30.61l-4.24-10.51c11.72,11.46,23.62,18.35,36.39,19.28-2.1-2.09-3.88-4.14-5.53-6.72,22.77,10.89,48.18,5.4,66.69-11.79,43.86,49.9,145.1,49.73,194.38,10.16,14.25,4.87,29.13,3.37,41.75-4.26,3.82-.71-2.16,5.11-2.52,5.95,8.82-.73,22.5-12.13,29.42-22.5l-1.66,9.26c10.14-7.19,16.93-20.08,20.27-36.35.94,4.04,1.46,7.79,1.83,11.78,7.65-12.55,9.89-27.77,6.48-44.04-.13-.99.67-1.11,1.31-.84ZM134.98,95.39c-13.99,15.48-23.15,67.31-2.21,79.86-12.52,14.05-32.43,17.58-48.84,9.08-32.43-16.15-36.83-65.39-20.21-94.78,17.25-33.86,60.26-30.63,71.25,5.84ZM406.08,151.33c-1.46.61-2.73,1.14-3.44,4.92-2.75,18.74-12.22,42.22-35.79,40.7-53.78,81.95-194.56,35.59-189.74-63.84,48.8-12.84,22.97,16.85,43.41,42.95,6.41,11.35,34.84,19.59,54.25,14.74,21.27-2.69,34.26-23.21,39.47-42.53,2.49-9.14,15.58-8.7,17.15.66,0,0,2.09,10.28,2.09,10.28,1.39,6.83,3.52,12.81,6.51,18.29,8.89,18.4,41.49,19.04,49.87,2.74,4.56-7.64,6.71-16.82,8.68-26.35.98-4.73,3.79-6.09,5.65-6.99,1.19-.58,1.82-.91,1.87-1.61l.85-12.56c.07-1.06-.91-2-1.86-2.34-47.36-17.99-63.56,3.42-92.81-6.25-49.49-24.39-115.19-22.15-166.71,2.06,10.51-7.57,22.16-12.55,34.22-17.61,12.95-63.53,96.12-88.93,143.79-49.84,5.85-9.32,15.47,3.5,19.98,6.94,14.57,14.22,24.89,32.36,29.86,52.5,9.92,1.8,36.14,3.33,37.95,13.65.18,17.22-2.58,18.37-5.25,19.48ZM204.99,118.89c.92-5.37,11.85-5.22,13.29.44-.46,6.46-12.93,5.94-13.29-.44ZM394.14,138.19c.09-5.28,9.72-4.33,8.74.97-.79,4.58-8.83,3.31-8.74-.97Z"/>
</svg>